<?xml version="1.0" standalone="no"?>
<!DOCTYPE svg PUBLIC "-//W3C//DTD SVG 20010904//EN"
 "http://www.w3.org/TR/2001/REC-SVG-20010904/DTD/svg10.dtd">
<svg version="1.0" xmlns="http://www.w3.org/2000/svg"
 width="1024.000000pt" height="1024.000000pt" viewBox="0 0 1024.000000 1024.000000"
 preserveAspectRatio="xMidYMid meet">

<g transform="translate(0.000000,1024.000000) scale(0.100000,-0.100000)"
fill="#000000" stroke="none">
<path d="M0 5120 l0 -5120 5120 0 5120 0 0 5120 0 5120 -5120 0 -5120 0 0
-5120z m5445 4760 c303 -17 597 -63 865 -134 233 -62 276 -76 500 -166 539
-216 1000 -533 1505 -1035 266 -264 496 -549 733 -905 182 -275 254 -396 361
-615 253 -513 416 -1134 445 -1687 l6 -98 -24 0 c-23 0 -25 5 -31 68 -35 382
-69 599 -131 852 -104 417 -253 774 -491 1172 l-64 106 -183 1 c-137 0 -191
-3 -212 -13 -45 -22 -694 -31 -787 -11 -111 23 -204 73 -328 177 -50 40 -71
50 -48 21 13 -16 12 -17 -3 -4 -10 7 -16 17 -13 21 3 4 -23 32 -57 62 -34 29
-110 95 -168 147 -522 465 -1092 767 -1595 845 -249 39 -661 44 -915 11 -311
-40 -787 -183 -1050 -315 -321 -161 -720 -459 -922 -688 -58 -66 -65 -78 -56
-96 20 -38 154 -200 245 -296 l91 -95 1723 -2 c1734 -1 2372 -7 2464 -22 41
-7 -4329 -17 -4711 -11 -195 3 -198 2 -273 -91 -85 -106 -186 -259 -301 -456
-52 -90 -97 -163 -100 -163 -18 0 -30 22 -33 60 -2 25 -10 69 -17 98 -12 46
-12 56 4 89 48 103 222 330 459 598 42 48 77 91 77 96 0 4 -190 9 -423 11
-404 3 -423 4 -448 23 -28 21 -33 58 -12 85 6 8 38 51 71 95 83 113 156 190
208 219 51 29 51 29 -31 -84 -74 -101 -175 -257 -175 -269 0 -19 123 -30 145
-13 6 4 27 33 48 65 44 67 137 177 248 292 42 44 99 105 125 136 77 87 260
250 424 376 219 168 300 226 425 308 252 166 565 333 760 406 71 27 78 25 71
-13 -9 -51 4 -62 61 -54 26 3 71 15 98 25 213 82 545 159 830 192 65 8 221 13
380 12 279 0 432 -13 640 -52 114 -22 329 -37 305 -21 -8 5 -16 18 -16 30 -2
32 62 27 117 -10 24 -16 49 -30 55 -30 10 0 34 41 34 59 0 37 -369 118 -695
153 -161 17 -782 17 -930 0 -539 -63 -1104 -262 -1601 -563 -299 -180 -495
-323 -763 -555 -101 -87 -192 -166 -204 -174 -42 -31 1 26 100 130 195 205
516 449 869 660 144 86 513 269 617 306 20 7 52 20 70 28 147 65 455 150 677
187 262 43 378 53 670 53 471 1 884 -52 1200 -156 212 -69 526 -210 706 -316
179 -106 583 -402 719 -526 22 -20 -17 8 -86 62 -287 225 -531 380 -788 498
-173 79 -478 204 -501 204 -17 0 -40 -56 -40 -98 0 -31 57 -41 76 -13 20 28
55 26 129 -5 33 -14 105 -43 160 -65 113 -46 304 -137 415 -199 338 -189 747
-525 1065 -875 134 -148 299 -378 319 -447 4 -15 17 -18 68 -18 87 0 96 7 75
62 -37 94 -340 482 -529 678 -408 422 -835 739 -1303 970 -329 162 -723 278
-1125 330 -234 30 -673 38 -901 16 -366 -35 -714 -122 -1109 -277 -595 -233
-1116 -581 -1576 -1050 -168 -173 -244 -242 -352 -324 -56 -42 -197 -207 -265
-309 -12 -17 -16 -17 -49 -6 -23 9 -33 17 -27 24 4 6 52 67 107 136 54 69 120
157 147 195 315 451 877 934 1445 1242 269 146 525 260 785 348 561 191 1283
241 1990 139 252 -36 670 -164 930 -283 33 -15 89 -41 125 -57 147 -65 384
-206 565 -338 63 -45 263 -202 275 -216 3 -3 48 -43 100 -89 233 -206 562
-565 722 -787 77 -108 183 -282 197 -326 8 -23 20 -38 34 -42 28 -7 212 -8
219 -1 7 7 -176 282 -252 380 -423 547 -904 1005 -1383 1320 -135 89 -489 270
-652 335 -239 94 -577 193 -805 234 -159 29 -515 67 -680 73 -353 12 -873 -54
-1245 -159 -430 -120 -900 -339 -1321 -613 -516 -337 -886 -688 -1239 -1176
-38 -53 -116 -157 -171 -230 -189 -250 -324 -470 -469 -764 -109 -220 -166
-373 -245 -660 -101 -368 -132 -602 -132 -975 0 -542 67 -945 234 -1410 245
-681 447 -1060 846 -1595 114 -152 233 -306 252 -325 3 -3 34 -39 69 -80 197
-232 522 -514 818 -713 396 -265 849 -478 1260 -591 409 -114 672 -153 1093
-162 350 -9 580 9 935 71 320 56 729 196 1067 365 230 116 277 143 448 256
389 258 681 511 988 855 228 255 586 747 734 1009 132 232 232 446 328 697 89
232 135 387 221 753 l23 95 8 -45 c20 -105 20 -114 -27 -295 -132 -520 -384
-1076 -709 -1565 -427 -644 -738 -976 -1324 -1417 -219 -164 -364 -254 -629
-387 -657 -330 -1327 -473 -2113 -452 -354 9 -604 43 -935 128 -317 80 -563
173 -868 324 -308 154 -587 328 -818 511 -343 271 -544 481 -844 878 -380 504
-656 1005 -875 1590 -119 318 -179 535 -224 809 -38 224 -49 375 -49 636 0
402 58 754 195 1185 132 416 301 755 575 1152 124 179 440 596 552 728 173
204 427 443 636 601 289 219 408 298 620 413 33 18 65 36 70 41 21 17 324 168
410 204 50 21 108 47 130 56 165 74 529 182 765 229 334 65 737 92 1095 71z
m-475 -1770 c21 -11 55 -40 76 -65 62 -76 103 -86 148 -36 36 40 70 29 226
-79 80 -55 150 -100 157 -100 6 0 13 6 15 14 6 26 119 136 139 136 32 0 70
-25 124 -80 54 -55 111 -92 176 -115 40 -14 42 -14 60 9 18 22 24 23 139 23
83 -1 124 3 132 11 10 10 10 15 -1 21 -11 7 -4 20 31 61 25 29 52 64 59 79 24
47 41 61 76 61 48 0 69 -13 280 -171 174 -131 194 -143 271 -165 79 -23 192
-70 312 -129 84 -42 122 -53 168 -50 23 2 42 -1 42 -6 0 -6 4 -8 9 -4 5 3 12
1 16 -5 3 -5 36 -24 72 -42 36 -17 73 -39 82 -48 9 -9 36 -25 61 -34 25 -10
53 -25 63 -33 12 -11 51 -19 130 -25 61 -5 117 -11 124 -13 6 -2 32 -39 57
-82 39 -68 43 -79 28 -85 -47 -19 -270 0 -257 22 8 12 -102 99 -133 106 -85
19 -101 26 -107 44 -5 16 -10 18 -24 10 -33 -17 -311 -29 -584 -26 l-268 4
-37 28 c-27 20 -32 22 -19 6 11 -11 16 -26 12 -31 -4 -8 -548 -11 -1813 -11
l-1807 0 -60 31 c-63 32 -101 67 -88 79 4 4 24 13 44 19 19 6 51 25 70 41 57
49 170 150 262 233 47 42 92 77 100 77 8 0 26 -9 40 -20 14 -11 28 -20 32 -20
4 0 30 -16 57 -36 l50 -35 16 23 c8 13 83 92 166 176 101 101 158 152 172 152
13 0 62 -35 120 -86 88 -78 100 -85 129 -80 64 12 269 -124 455 -303 52 -50
103 -91 113 -91 10 0 22 -11 27 -25 l10 -25 555 0 c305 0 555 2 555 5 0 2 -13
11 -30 20 -16 8 -52 36 -80 60 -28 25 -53 45 -56 45 -12 0 20 -42 51 -67 44
-35 44 -44 3 -36 -37 7 -70 27 -146 91 l-53 44 -464 -1 c-306 -1 -465 2 -465
9 0 20 61 23 367 16 172 -4 313 -4 313 -2 0 3 -46 40 -102 83 -57 42 -128 101
-158 129 -59 56 -110 84 -110 61 0 -19 53 -67 74 -67 15 0 16 -3 6 -15 -18
-22 -30 -19 -79 20 l-44 35 -141 0 c-124 0 -151 -3 -216 -25 -41 -13 -78 -25
-83 -25 -13 0 20 54 53 85 37 35 73 91 68 105 -2 6 -20 -1 -40 -15 l-36 -25
-11 51 c-21 95 -14 103 87 118 107 16 189 13 232 -9z m2633 -538 l27 -28 -28
2 c-15 1 -38 3 -52 4 -14 1 -20 4 -13 6 7 3 10 11 7 19 -3 7 3 15 13 18 10 3
18 5 19 6 0 0 12 -12 27 -27z m-6137 -99 c11 -7 24 -10 27 -6 4 3 7 1 7 -5 0
-7 -10 -12 -22 -13 -43 -1 -284 -358 -393 -581 -28 -59 -56 -104 -60 -100 -4
4 -5 -3 -2 -16 3 -12 1 -20 -4 -16 -5 3 -9 -11 -9 -30 0 -39 -39 -94 -58 -82
-41 25 30 242 143 442 95 169 252 411 278 429 20 14 44 8 93 -22z m7446 -147
c120 -140 311 -475 411 -721 88 -216 158 -477 156 -589 l0 -51 -15 50 c-113
385 -316 823 -548 1184 -83 130 -93 150 -79 164 15 16 40 4 75 -37z m-553
-130 c15 -18 -7 -59 -27 -51 -8 3 -18 5 -23 5 -5 0 -3 14 6 30 17 33 27 37 44
16z m179 -156 c180 -291 342 -683 438 -1061 60 -239 125 -672 96 -644 -18 18
-72 186 -128 400 -59 228 -168 562 -240 739 -58 142 -181 379 -272 526 -65
103 -70 115 -53 122 10 3 22 12 26 18 4 6 21 10 37 8 28 -3 39 -15 96 -108z
m-543 90 c-3 -5 -11 -10 -16 -10 -6 0 -7 5 -4 10 3 6 11 10 16 10 6 0 7 -4 4
-10z m-16 -61 c7 -22 29 -69 50 -103 110 -180 298 -591 289 -633 -2 -11 -13
-7 -42 16 l-39 31 -146 0 c-80 0 -265 7 -411 15 -203 12 -1362 54 -1487 55
-13 0 -23 4 -23 8 0 16 1018 -10 1597 -40 238 -12 434 -20 437 -17 15 15 -187
364 -323 559 -48 69 -91 131 -95 138 -6 9 14 12 87 12 l94 0 12 -41z m-4314
-361 c28 -80 84 -200 102 -220 15 -17 42 -18 478 -11 l461 6 48 -61 c26 -34
56 -66 66 -72 12 -6 169 -10 417 -10 227 0 426 -5 462 -11 42 -6 88 -24 135
-50 39 -23 63 -38 52 -35 -75 25 -135 27 -657 24 l-557 -3 15 36 c8 21 13 59
11 90 l-3 54 -266 3 -266 2 -7 -37 c-14 -88 -28 -81 172 -85 143 -3 183 -7
209 -21 17 -9 35 -22 38 -28 10 -15 -23 -48 -80 -78 l-50 -26 -1320 -3 c-726
-2 -1363 0 -1415 4 -89 6 -93 8 -65 19 30 13 409 48 675 63 l135 7 27 50 c14
28 30 63 34 79 l7 28 -101 -3 c-55 -2 -103 -1 -107 2 -3 4 0 38 6 78 l12 71
151 0 c140 0 152 1 164 20 12 19 23 20 325 20 l313 0 32 -65 c18 -36 32 -72
32 -80 0 -11 11 -15 38 -15 31 -1 34 -2 19 -11 -10 -6 -25 -8 -33 -5 -8 3 -14
1 -14 -3 0 -5 -22 -15 -50 -22 -28 -7 -50 -19 -50 -26 0 -10 25 -13 104 -13
115 0 116 0 116 70 0 29 -8 48 -36 82 -58 69 -88 138 -80 183 9 46 16 41 71
-58 l41 -72 54 0 55 0 14 55 c7 30 18 72 23 93 5 20 12 37 16 37 5 0 16 -24
27 -52z m560 36 c9 -9 14 -23 11 -31 -3 -8 -6 -20 -6 -28 0 -22 -83 -35 -224
-35 -74 0 -136 -3 -138 -7 -7 -17 -68 -66 -74 -60 -7 6 47 111 75 144 17 20
29 23 137 25 66 2 138 4 160 6 29 2 47 -3 59 -14z m576 -114 c54 -89 87 -170
69 -170 -5 0 -19 18 -32 41 l-23 41 -492 -3 c-271 -3 -493 -1 -493 3 0 4 10
13 23 20 17 10 122 13 457 14 239 0 450 -3 468 -7 39 -9 40 -3 3 49 l-30 40
-203 4 c-188 4 -207 6 -253 28 -47 22 -49 24 -25 31 14 4 126 6 250 6 l224 -2
57 -95z m2659 -38 l275 -7 33 -63 c19 -35 32 -65 30 -66 -1 -2 -28 0 -58 4
-113 17 -1235 61 -1510 59 -91 0 -325 -8 -521 -17 -195 -9 -367 -15 -381 -12
-23 5 -26 9 -24 47 1 24 4 45 7 47 21 22 1464 27 2149 8z m-6507 -95 c3 -7 -8
-51 -25 -98 -64 -185 -100 -321 -138 -523 -21 -116 -42 -236 -45 -266 -13
-104 -27 -90 -21 21 7 142 46 343 100 524 25 83 47 159 50 170 4 11 -1 4 -10
-15 -20 -43 -78 -235 -104 -346 -33 -138 -78 -443 -85 -569 -22 -417 80 -1073
221 -1418 101 -248 195 -507 192 -526 -2 -10 -14 2 -34 34 -27 44 -47 85 -124
260 -162 363 -252 712 -291 1125 -15 163 -15 619 0 740 34 268 105 533 184
687 18 34 49 96 70 138 38 74 50 87 60 62z m4962 -53 c-175 -18 -1010 -31
-1001 -15 5 8 98 11 314 12 169 1 370 5 447 8 77 4 192 8 255 8 l115 0 -130
-13z m1390 -99 c433 -17 470 -20 795 -51 277 -26 280 -27 280 -87 0 -29 0 -29
-46 -22 -25 3 -560 8 -1187 10 -693 3 -1157 8 -1181 14 -52 13 -62 24 -50 58
11 32 56 50 206 83 86 18 120 19 458 15 201 -3 527 -11 725 -20z m-1375 -162
c75 -34 140 -101 189 -193 33 -62 125 -324 165 -472 80 -295 115 -495 122
-713 5 -139 3 -174 -15 -265 -39 -191 -123 -318 -262 -397 -41 -23 -90 -44
-109 -47 -31 -6 -33 -5 -16 6 11 7 51 34 91 60 102 67 159 133 210 241 70 150
80 204 80 412 -1 195 -10 262 -80 550 -70 291 -168 571 -230 655 l-35 47 -87
-4 c-72 -4 -99 -1 -150 16 -60 20 -80 21 -570 21 -314 0 -522 -4 -545 -10 -67
-19 -140 -132 -221 -340 -82 -212 -256 -734 -268 -803 -7 -40 -9 -122 -6 -195
4 -110 11 -152 41 -257 4 -11 -14 21 -38 70 -76 154 -86 220 -54 385 12 63
112 336 162 443 44 94 64 143 127 312 28 77 81 198 116 269 35 70 61 131 58
134 -3 4 -16 0 -28 -7 -12 -7 -4 5 18 26 22 22 49 43 60 47 33 14 287 27 675
35 501 11 520 10 600 -26z m2471 -51 c12 -12 237 -713 259 -802 11 -47 20
-101 20 -121 l0 -36 -242 -6 c-133 -4 -625 -7 -1094 -7 l-853 0 -22 73 c-12
39 -45 151 -74 247 -74 251 -186 527 -244 604 l-46 61 1145 -3 c630 -2 1148
-6 1151 -10z m-5112 -56 c-11 -18 -26 -65 -34 -102 -39 -193 -81 -724 -57
-724 16 0 30 56 37 150 13 181 46 538 56 597 5 35 15 74 21 88 l11 25 538 0
538 0 -43 -122 c-24 -68 -57 -159 -73 -203 -28 -77 -53 -155 -129 -420 -19
-66 -42 -139 -50 -163 l-16 -42 -481 2 -482 3 2 65 c4 88 39 432 69 669 13
107 22 197 19 200 -13 13 -25 -24 -44 -139 -34 -205 -61 -445 -70 -619 -6
-120 -12 -166 -22 -173 -9 -6 -317 -7 -839 -4 l-825 6 -3 120 c-2 104 1 137
29 256 38 166 112 430 140 501 l21 53 192 3 c105 1 489 3 853 5 l662 2 -20
-34z m1223 -45 c-56 -70 -91 -135 -152 -284 -29 -70 -55 -126 -57 -124 -3 4
49 148 85 232 32 76 147 243 159 231 3 -2 -13 -27 -35 -55z m1469 -82 c51 -40
83 -90 129 -204 57 -140 101 -272 156 -470 44 -159 47 -179 51 -320 3 -82 0
-184 -5 -225 -9 -63 -15 -78 -39 -97 -15 -13 -31 -23 -35 -23 -5 0 -8 53 -9
118 0 64 -4 156 -7 204 -4 47 -4 84 -1 82 3 -1 12 -35 19 -74 21 -109 40 -85
40 50 0 71 -28 268 -51 355 -40 155 -138 421 -180 491 -31 51 -108 131 -154
162 -11 7 -4 5 15 -4 19 -9 51 -29 71 -45z m-4662 -364 c-28 -86 -55 -158 -60
-160 -16 -10 -59 15 -59 34 0 11 25 49 55 84 48 56 57 74 65 124 6 32 10 61
10 65 0 4 8 14 18 24 32 33 25 -10 -29 -171z m7503 60 c37 -49 81 -116 97
-150 31 -64 84 -225 95 -287 l7 -38 -100 0 -99 0 -11 33 c-5 17 -19 66 -30
107 -23 81 -71 207 -119 310 -17 36 -34 78 -38 93 l-6 28 68 -3 68 -3 68 -90z
m-3387 -43 c109 -36 185 -77 285 -150 207 -153 299 -305 336 -553 31 -215 4
-391 -92 -582 -82 -162 -175 -277 -269 -332 -100 -59 -341 -102 -520 -92 -290
16 -571 174 -728 411 -72 106 -109 183 -138 281 -32 107 -34 334 -5 435 44
149 114 266 223 371 99 96 201 158 336 203 116 39 166 45 332 42 135 -3 159
-7 240 -34z m-4148 -289 c-2 -16 -4 -5 -4 22 0 28 2 40 4 28 2 -13 2 -35 0
-50z m8354 -258 c-4 -240 -32 -483 -92 -780 -84 -424 -205 -769 -394 -1125
-91 -172 -362 -583 -341 -517 7 24 -11 22 -24 -3 -6 -11 -20 -20 -30 -20 -24
0 -25 -4 -4 -35 14 -22 14 -26 -2 -52 -20 -30 -170 -229 -267 -353 -248 -315
-706 -746 -1007 -947 -191 -127 -491 -287 -726 -386 -373 -157 -581 -209 -944
-237 -74 -5 -150 -14 -168 -19 -18 -6 -110 -17 -205 -27 -475 -46 -1086 34
-1632 214 -467 155 -969 438 -1330 752 -106 93 -361 350 -510 515 -49 55 -136
147 -191 205 -119 123 -133 144 -105 160 11 5 31 10 46 10 15 0 24 4 20 10 -3
6 -2 10 2 10 12 0 78 -71 142 -151 28 -36 58 -66 66 -66 15 0 13 6 -17 49 -10
14 -18 31 -18 38 0 6 -22 37 -50 68 -111 127 -288 352 -336 427 -63 100 -134
229 -134 244 0 18 268 13 297 -5 13 -8 54 -60 92 -117 38 -56 88 -119 110
-141 24 -22 40 -45 37 -52 -3 -8 -1 -14 5 -14 17 0 88 -72 124 -126 31 -46
109 -139 155 -184 9 -8 88 -101 177 -206 260 -307 368 -402 738 -646 363 -239
411 -267 755 -431 245 -118 525 -196 896 -251 128 -20 494 -39 599 -32 72 5
76 4 35 -6 -25 -6 -155 -11 -290 -12 -223 -1 -261 2 -425 28 -656 102 -1083
258 -1697 619 -312 184 -551 419 -1106 1090 -97 117 -107 197 -11 88 53 -60
69 -72 69 -50 0 13 -78 102 -116 131 -25 21 -26 21 -22 1 1 -11 -1 -19 -7 -19
-5 1 -9 3 -8 6 1 3 -9 5 -22 5 -18 0 -24 -6 -27 -27 -5 -28 13 -59 131 -228
33 -47 117 -170 187 -275 175 -261 262 -369 325 -400 27 -14 77 -49 112 -78
34 -29 94 -79 132 -111 39 -33 86 -72 105 -88 36 -31 157 -115 263 -182 393
-250 1049 -500 1507 -576 226 -37 253 -40 450 -51 530 -29 1221 72 1650 241
472 186 810 385 1145 674 274 237 432 403 755 791 156 188 207 255 304 400 22
33 67 92 99 130 274 327 517 944 603 1533 22 151 43 461 44 634 0 54 1 57 28
61 56 9 55 10 53 -108z m-7723 40 c19 -7 16 -174 -3 -202 -13 -19 -20 -21 -41
-12 -15 5 -70 9 -123 9 -53 0 -127 4 -166 8 -38 5 -75 7 -82 5 -21 -8 -25 -37
-6 -51 15 -11 55 -13 212 -7 119 4 201 11 212 18 36 22 52 74 45 143 -4 35 -9
69 -11 76 -4 10 110 13 564 13 313 0 573 -4 577 -8 5 -5 10 -129 12 -277 l4
-270 -213 -3 -214 -2 221 -3 222 -2 7 156 c5 102 3 198 -4 275 -7 66 -9 123
-6 129 10 16 955 14 955 -2 0 -7 -10 -42 -21 -78 -33 -100 -31 -250 4 -352 15
-42 27 -79 27 -82 0 -3 -109 -7 -242 -7 -134 -1 -344 -5 -468 -8 -194 -6 -160
-8 251 -9 l477 -2 59 -107 c54 -98 153 -297 153 -308 0 -16 -28 0 -45 25 -11
16 -27 33 -35 37 -15 8 -1086 17 -1250 11 -81 -3 -83 -4 -55 -16 65 -30 298
-42 803 -42 l492 0 0 -22 c0 -12 -7 -30 -17 -40 -14 -16 -34 -18 -192 -18 -97
0 -349 -3 -561 -8 -308 -6 -359 -8 -255 -13 251 -12 1285 -22 1285 -13 0 9
-58 112 -94 167 -10 15 -16 27 -13 27 3 0 27 -35 53 -77 27 -43 58 -92 71
-109 13 -17 23 -35 23 -40 0 -6 -50 -8 -125 -6 -88 3 -125 1 -125 -7 0 -6 4
-11 9 -11 4 0 37 -34 71 -75 114 -137 250 -239 480 -363 l45 -24 -45 6 c-32 4
-41 3 -30 -4 43 -29 -82 15 -158 55 -126 67 -300 234 -385 372 l-32 51 -580 6
c-319 3 -623 9 -675 12 -112 6 -150 -4 -150 -40 0 -37 -39 -156 -68 -206 -32
-57 -173 -204 -231 -241 -58 -37 -76 -38 -25 -1 81 59 183 191 250 322 32 63
38 85 38 137 0 61 0 62 35 76 l36 15 -41 17 c-47 19 -54 36 -54 134 -1 31 -6
65 -13 77 -19 33 -101 124 -112 124 -22 1 -76 57 -84 87 -14 48 6 53 46 10
l33 -37 0 30 c0 43 -64 104 -132 125 -66 21 -318 31 -513 20 -133 -7 -140 -8
-166 -34 -18 -19 -37 -60 -58 -127 -17 -54 -39 -117 -50 -139 l-18 -40 -7 43
c-11 60 -34 72 -151 79 -136 8 -130 -7 -132 313 0 140 1 275 3 300 l5 45 242
-3 c133 -1 248 -4 255 -7z m6750 -5 c22 0 23 -4 22 -47 -3 -92 -1 -105 20
-110 25 -7 25 -17 1 -57 -11 -17 -27 -57 -36 -89 -12 -41 -23 -61 -38 -67 -14
-5 57 -9 186 -9 l209 -1 45 -37 c25 -20 49 -48 54 -61 19 -49 -9 -150 -81
-302 -39 -80 -85 -193 -104 -252 -61 -187 -196 -472 -294 -621 -30 -45 -41
-42 -15 5 13 25 18 57 18 133 1 116 15 147 73 166 82 27 108 82 211 436 13 42
39 97 65 135 42 62 87 144 107 195 9 25 9 25 -30 -6 -21 -17 -41 -31 -44 -31
-2 0 -31 -16 -63 -35 -62 -38 -106 -52 -405 -136 l-187 -51 -6 -37 c-3 -20
-11 -67 -16 -106 -25 -170 -77 -305 -150 -387 -68 -78 -229 -173 -325 -193
-16 -3 1 6 38 21 40 16 64 30 57 34 -8 5 -7 9 5 14 9 3 41 25 71 48 73 56 146
167 180 271 24 72 28 98 28 217 1 143 -13 210 -65 311 -47 93 -201 218 -331
270 -65 25 -72 31 -27 23 104 -18 173 -58 285 -166 117 -113 149 -166 179
-292 12 -49 24 -85 28 -80 3 5 8 52 12 104 12 169 -33 319 -122 408 -85 85
-96 87 -538 87 -432 0 -456 -3 -540 -77 -49 -43 -74 -104 -56 -136 8 -13 10
-14 11 -2 0 12 2 12 9 2 6 -10 13 -5 29 20 43 69 143 140 195 137 6 0 -11 -9
-39 -20 -53 -20 -119 -89 -153 -158 -15 -32 -15 -33 12 -57 36 -31 75 -32 86
-1 15 38 89 97 170 136 74 35 79 36 196 36 116 0 123 -1 188 -33 72 -36 175
-125 221 -190 15 -22 43 -84 63 -138 30 -85 35 -111 35 -184 0 -143 -50 -258
-156 -358 -90 -86 -196 -125 -336 -126 -85 0 -183 17 -208 37 -10 8 -12 24 -7
58 6 43 4 49 -16 60 -13 6 -40 12 -61 12 -35 0 -39 3 -67 56 -73 140 -91 285
-56 446 6 29 5 31 -35 42 l-42 11 -35 -76 -36 -75 6 -111 c4 -79 12 -128 27
-171 12 -33 22 -68 22 -78 -1 -27 60 -125 112 -181 25 -27 46 -51 46 -54 0
-14 -78 71 -141 154 -100 131 -128 208 -139 389 -14 206 -21 276 -30 270 -4
-2 -38 -56 -76 -120 l-69 -115 -95 -2 c-52 -1 -153 0 -225 1 -126 3 -131 2
-164 -23 -19 -14 -36 -24 -38 -22 -2 2 18 53 46 113 67 147 123 320 156 478
23 112 26 145 22 240 l-6 110 1067 -3 c587 -1 1077 -2 1090 -2z m339 -115 c-4
-66 -2 -117 3 -120 5 -3 20 -3 34 1 20 5 27 15 35 47 l9 42 1 -40 c1 -57 -8
-85 -25 -78 -9 3 -33 -9 -56 -27 -56 -45 -104 -60 -221 -67 l-99 -6 7 24 c4
13 32 73 61 133 30 60 54 121 54 135 0 69 3 71 108 71 l95 0 -6 -115z m-7715
-67 c-6 -112 -22 -85 -21 35 1 92 2 99 13 72 8 -19 11 -58 8 -107z m-34 -302
c2 -127 1 -134 -18 -139 -38 -10 -39 62 -4 201 10 39 19 72 19 72 0 0 2 -60 3
-134z m8581 -51 c1 -68 -14 -90 -27 -42 -7 25 -7 59 1 109 l12 73 7 -45 c3
-25 7 -67 7 -95z m-7433 9 c49 -13 62 -21 161 -96 101 -77 219 -256 183 -278
-5 -3 -19 -34 -32 -69 -22 -61 -49 -94 -64 -78 -4 4 -7 33 -6 65 2 62 -8 89
-28 77 -12 -7 -11 -34 5 -107 3 -16 1 -28 -4 -28 -12 0 -26 40 -56 163 -30
129 -51 172 -101 217 -61 53 -118 74 -204 74 -142 0 -235 -69 -300 -221 -45
-104 -54 -112 -46 -38 9 81 39 139 107 206 61 61 141 105 222 124 55 13 82 11
163 -11z m-36 -168 c25 -13 57 -41 72 -62 34 -49 60 -143 45 -162 -12 -15 -17
-11 -50 49 -24 43 -29 33 -11 -20 14 -40 13 -44 -3 -56 -15 -11 -16 -15 -3
-31 13 -15 13 -17 0 -12 -8 2 -16 19 -18 37 -2 21 0 31 7 27 15 -9 -16 74 -35
96 -9 9 -32 22 -51 29 -50 16 -116 -10 -149 -61 -51 -76 -37 -230 25 -283 77
-64 142 -60 214 14 67 70 103 61 79 -19 -38 -124 -201 -198 -312 -140 -48 25
-127 114 -134 151 -28 145 -29 166 -12 230 31 114 91 196 166 226 46 18 122
13 170 -13z m1920 -6 c6 -11 8 -20 6 -20 -3 0 -10 9 -16 20 -6 11 -8 20 -6 20
3 0 10 -9 16 -20z m-2950 -98 c5 -20 10 -47 10 -60 0 -22 -1 -22 -22 -8 -38
27 -48 56 -32 89 18 34 30 28 44 -21z m3030 -32 c6 -11 8 -20 6 -20 -3 0 -10
9 -16 20 -6 11 -8 20 -6 20 3 0 10 -9 16 -20z m-2084 -46 c-3 -9 -9 -41 -12
-72 -8 -84 -11 -88 -34 -67 -30 27 -27 98 5 130 27 28 50 33 41 9z m-588 -56
c4 -32 -29 -58 -73 -58 -36 0 -151 35 -182 56 -45 29 -26 35 115 32 l137 -3 3
-27z m-228 -49 c0 -10 -161 -16 -167 -6 -3 5 0 21 7 36 l11 28 75 -25 c41 -14
74 -29 74 -33z m5046 -10 c253 -1 258 -1 236 -19 -12 -10 -47 -22 -77 -25 -34
-5 -59 -13 -64 -23 -8 -14 -11 -14 -35 1 -21 14 -52 17 -185 17 l-159 0 -30
-32 c-17 -18 -50 -58 -74 -88 -77 -95 -205 -141 -273 -96 -32 21 -39 38 -30
73 l7 28 28 -35 c25 -31 34 -35 73 -34 29 1 61 10 90 27 49 29 130 113 174
181 21 34 32 42 44 35 9 -4 133 -9 275 -10z m-3910 -89 c5 -47 10 -60 24 -60
19 0 47 29 80 83 12 21 24 36 26 34 8 -8 -28 -132 -47 -163 -34 -56 -161 -168
-224 -198 -76 -36 -201 -59 -285 -52 -109 8 -120 19 -71 73 28 31 60 31 48 0
-10 -26 138 -34 208 -11 70 21 140 82 180 156 26 46 30 62 28 126 -2 56 1 72
12 72 10 0 16 -18 21 -60z m-51 -27 c-10 -53 -18 -32 -9 24 4 26 10 40 12 30
2 -11 1 -35 -3 -54z m-639 -21 c25 -83 40 -105 66 -99 11 3 18 0 18 -8 0 -7
11 -27 25 -43 14 -17 25 -39 25 -49 0 -28 -20 -83 -30 -83 -15 0 -82 84 -100
125 -9 22 -34 74 -54 115 -48 100 -47 124 3 118 21 -3 28 -13 47 -76z m-62
-119 c14 -125 108 -243 251 -314 96 -49 53 -42 -51 7 -154 73 -232 191 -225
342 2 44 18 21 25 -35z m700 -139 c9 -3 14 -10 11 -14 -6 -10 -45 -1 -45 11 0
10 12 11 34 3z m4796 -74 c17 -15 19 -18 5 -11 -11 6 -36 25 -55 42 -30 26
-30 28 -5 10 17 -11 41 -30 55 -41z m44 44 c3 -8 2 -12 -4 -9 -6 3 -10 10 -10
16 0 14 7 11 14 -7z m111 -135 c22 -10 33 -18 25 -18 -8 0 -37 11 -65 25 -55
26 -23 21 40 -7z m332 -25 c-3 -3 -12 -4 -19 -1 -8 3 -5 6 6 6 11 1 17 -2 13
-5z m-2032 -63 c72 -4 -212 -7 -630 -7 -657 -1 -712 0 -405 7 195 5 366 10
380 12 34 4 496 -4 655 -12z m-1637 -8 c-10 -2 -28 -2 -40 0 -13 2 -5 4 17 4
22 1 32 -1 23 -4z m4362 -169 c0 -8 -50 -104 -93 -179 -44 -76 -220 -331 -301
-435 -128 -165 -179 -220 -203 -220 -38 0 -28 40 32 126 87 126 267 397 304
460 l34 57 28 -34 c32 -38 37 -27 14 28 -15 35 -15 37 26 112 23 42 50 88 61
103 l19 28 40 -20 c21 -11 39 -23 39 -26z m-426 5 c-10 -11 -26 -18 -36 -16
-10 3 -16 2 -14 -1 2 -4 -1330 -6 -2960 -4 -2638 2 -2965 1 -2970 -13 -4 -8
-12 -15 -19 -15 -21 0 -84 43 -85 58 0 9 617 12 3052 12 l3051 0 -19 -21z
m-6059 -262 c86 -150 168 -252 341 -422 98 -97 116 -121 157 -204 26 -52 45
-97 42 -99 -21 -21 -382 304 -479 431 -81 106 -206 329 -193 345 13 16 59 40
72 38 5 -2 32 -42 60 -89z m458 54 c53 -27 137 -93 131 -103 -10 -16 -49 -2
-84 32 -68 65 -153 87 -190 50 -43 -43 -10 -184 56 -245 40 -37 11 -30 -32 7
-66 58 -101 166 -73 221 30 59 118 76 192 38z m869 2 c24 -21 23 -36 -5 -70
-13 -15 -47 -98 -76 -183 -55 -161 -181 -460 -211 -500 -11 -14 -22 -20 -30
-15 -12 8 -10 125 5 225 l5 35 -13 -28 c-13 -28 -31 -28 -20 1 4 9 2 13 -4 9
-6 -4 -13 -20 -17 -37 -3 -17 -9 -29 -13 -27 -5 3 -9 -5 -9 -16 -4 -63 -47
-161 -67 -154 -7 2 -14 21 -17 43 -3 21 -9 44 -13 50 -4 7 0 14 8 18 8 3 15 0
16 -7 0 -9 2 -9 6 0 2 7 -11 68 -31 135 -19 68 -40 150 -47 183 l-12 60 -22
-65 c-13 -36 -35 -87 -50 -114 -21 -36 -25 -50 -15 -56 15 -9 10 -58 -17 -175
-15 -67 -22 -80 -40 -83 -26 -4 -53 51 -125 258 -28 80 -68 195 -89 255 -22
61 -40 115 -42 120 -1 6 25 11 58 13 l60 3 1 -48 c1 -31 14 -78 38 -132 20
-46 44 -113 52 -148 17 -64 34 -84 34 -37 0 39 27 126 77 249 52 127 64 144
98 138 37 -8 51 -31 69 -113 21 -96 77 -292 87 -303 3 -5 12 15 19 45 7 29 35
118 62 198 54 163 58 192 26 214 -17 12 -19 16 -6 16 9 0 28 -14 42 -31 30
-35 32 -65 15 -215 -8 -74 -7 -99 2 -110 14 -17 23 3 79 169 38 112 39 161 4
198 -14 15 -23 32 -20 38 12 18 127 14 148 -6z m402 -115 c41 -46 136 -159
211 -253 74 -93 139 -171 144 -173 4 -1 6 80 3 180 -3 156 -7 188 -23 216
l-19 33 273 -3 c303 -3 299 -2 354 -74 l28 -37 3 -223 c3 -252 0 -268 -65
-300 -31 -15 -69 -19 -208 -22 -93 -2 -183 -2 -200 0 l-30 3 48 33 47 33 0
260 c0 213 -3 265 -15 289 -9 17 -20 30 -26 30 -6 0 -29 -19 -50 -42 -49 -54
-54 -89 -46 -355 l5 -202 -29 -10 c-18 -6 -39 -7 -53 -1 -30 11 -101 92 -179
204 -34 49 -74 103 -89 120 l-27 31 -1 -181 c0 -191 -6 -220 -46 -212 -18 3
-19 15 -21 223 -3 251 -11 387 -23 380 -9 -5 -45 68 -56 112 -11 40 12 25 90
-59z m5013 59 c-10 -26 -221 -344 -280 -422 -91 -120 -240 -297 -348 -415
-105 -114 -413 -421 -468 -466 -31 -26 -34 -27 -46 -11 -11 16 -20 9 -78 -60
-65 -77 -97 -104 -227 -195 -167 -117 -524 -297 -725 -365 -322 -109 -796
-231 -965 -248 -36 -3 -78 -9 -95 -12 -16 -3 -27 -2 -24 1 8 8 101 32 159 41
233 35 520 101 699 161 76 26 112 42 196 88 28 16 79 44 115 64 69 38 108 60
165 92 19 11 50 29 69 39 19 11 59 35 88 54 29 19 82 53 118 75 36 23 83 58
105 78 22 20 85 72 140 117 55 45 102 84 105 87 3 3 21 18 40 33 84 67 405
396 535 547 78 91 189 220 246 286 57 67 151 179 209 249 137 166 170 195 228
195 32 0 43 -4 39 -13z m-5245 -307 c92 -260 120 -324 158 -361 l38 -36 -81
-6 c-79 -7 -103 -3 -80 11 8 5 -5 40 -40 112 l-52 105 -49 3 c-53 3 -76 -11
-102 -60 -18 -35 -18 -119 1 -144 8 -10 15 -22 15 -26 0 -5 -38 -8 -85 -8 -47
0 -85 4 -85 8 0 5 14 21 31 38 17 16 49 66 71 111 47 98 78 131 129 139 22 4
39 11 39 17 0 5 -12 36 -26 68 l-27 59 29 122 29 122 23 -80 c13 -43 41 -131
64 -194z m4190 238 c23 -12 56 -42 74 -65 31 -41 32 -41 38 -18 8 30 39 48 67
40 23 -8 22 -24 -10 -98 -27 -64 -51 -66 -104 -10 -23 24 -46 51 -50 59 -16
28 -93 64 -139 64 -35 0 -49 -5 -70 -27 -36 -39 -43 -77 -21 -114 13 -22 47
-44 130 -84 166 -80 232 -149 235 -247 1 -64 -25 -116 -70 -135 -55 -23 -204
-23 -262 0 -51 20 -88 68 -97 124 -4 24 -13 37 -29 44 -22 8 -24 14 -24 85 0
93 15 95 46 7 11 -34 29 -74 39 -90 104 -159 175 -201 265 -155 38 19 51 51
38 96 -12 44 -50 78 -165 148 -127 76 -177 129 -194 203 -11 49 -10 56 11 92
35 58 51 74 95 95 53 25 138 19 197 -14z m-2242 18 c0 -1 -5 -17 -11 -35 -8
-21 -9 -70 -4 -147 l7 -114 124 0 124 0 0 117 c0 106 -2 119 -22 140 l-21 23
45 0 c25 0 67 3 94 7 l49 6 -28 -32 c-15 -18 -30 -43 -33 -55 -3 -12 -4 -136
-2 -274 2 -184 6 -254 16 -264 22 -22 13 -28 -38 -28 -27 0 -51 1 -52 3 0 1
-4 72 -7 157 l-6 155 -120 0 -120 0 0 -162 c0 -96 -4 -163 -9 -163 -5 0 -31
22 -58 50 l-48 50 0 240 0 240 -36 40 -36 39 89 4 c48 1 91 4 96 5 4 1 7 0 7
-2z m1671 -38 l-31 -30 0 -264 c0 -260 0 -263 22 -278 23 -17 100 -21 157 -10
17 4 51 24 75 45 24 22 47 39 50 39 3 0 6 -29 6 -65 l0 -65 -242 0 -243 0 38
31 37 30 0 268 0 267 -30 29 c-16 16 -30 31 -30 34 0 3 50 5 111 3 l111 -3
-31 -31z m-1905 -50 c0 -43 -3 -78 -7 -78 -4 0 -17 15 -28 33 -29 48 -58 57
-176 57 l-105 0 0 -110 0 -110 49 0 c60 0 100 14 120 42 14 21 15 21 22 2 9
-22 12 -134 4 -134 -3 0 -18 9 -34 21 -22 16 -39 19 -92 17 l-64 -3 0 -123 c0
-98 3 -125 15 -132 20 -13 154 -13 182 1 13 5 34 26 47 45 13 19 29 33 35 31
6 -2 17 -29 25 -61 12 -50 12 -59 0 -67 -19 -12 -466 -12 -473 0 -4 5 9 19 28
31 19 11 38 30 42 42 3 12 3 131 -1 266 l-7 244 -30 34 -29 33 238 -1 238 -2
1 -78z m1124 76 c0 -1 -6 -16 -14 -34 -9 -23 -11 -44 -5 -69 18 -75 6 -81 -32
-17 -31 50 -49 56 -175 56 l-84 0 0 -108 c0 -60 2 -111 4 -113 3 -3 23 -3 46
-1 28 3 49 13 70 33 15 16 31 29 34 29 3 0 6 -31 6 -70 0 -38 -2 -70 -4 -70
-2 0 -17 7 -32 15 -16 8 -51 15 -77 15 l-48 0 2 -121 c2 -156 7 -164 112 -154
97 9 101 11 128 50 39 57 51 46 63 -57 3 -23 0 -38 -7 -40 -7 -1 -120 -1 -251
2 -234 5 -238 5 -203 22 63 30 64 34 58 321 l-6 258 -33 27 -33 27 241 0 c132
0 240 -1 240 -1z m310 -3 l225 -1 -3 -85 c-2 -47 -7 -85 -11 -85 -4 0 -16 18
-26 41 -29 63 -44 69 -172 69 l-113 0 0 -110 0 -110 69 0 c58 0 72 3 95 25
l26 24 0 -77 0 -77 -19 25 c-17 21 -29 25 -95 28 l-76 4 0 -125 c0 -119 1
-127 22 -141 23 -17 100 -21 158 -9 19 3 50 23 72 45 22 22 46 37 53 34 8 -3
17 -22 20 -43 3 -21 10 -48 15 -60 l10 -23 -270 0 c-149 0 -270 2 -270 5 0 2
13 11 29 20 58 30 61 37 61 164 0 65 -3 180 -7 256 l-6 139 -34 37 -34 38 28
-3 c15 -2 129 -4 253 -5z m-3840 -426 c0 -8 -4 -15 -10 -15 -5 0 -10 7 -10 15
0 8 5 15 10 15 6 0 10 -7 10 -15z m1105 -114 c8 -16 33 -50 54 -75 35 -40 39
-50 34 -82 -7 -44 2 -53 147 -150 202 -135 329 -193 533 -243 360 -88 733 -90
1062 -6 249 64 483 156 616 241 47 30 75 42 100 41 32 -1 35 -3 34 -31 -1 -29
-7 -34 -126 -92 -150 -74 -271 -120 -453 -173 -295 -87 -524 -118 -791 -107
-220 8 -304 25 -737 153 -10 3 -16 9 -13 13 3 4 -2 11 -11 14 -8 3 -12 2 -9
-4 3 -6 -1 -7 -9 -4 -9 3 -14 10 -11 14 5 8 -33 26 -47 22 -5 -1 -8 2 -8 8 0
5 -28 24 -62 41 -35 18 -89 49 -120 70 -31 22 -61 39 -65 40 -4 0 -28 24 -53
53 -41 48 -46 52 -62 38 -10 -8 -18 -21 -18 -27 0 -17 -36 -39 -94 -59 -46
-16 -50 -16 -68 1 -16 14 -23 15 -38 5 -16 -10 -18 -9 -14 3 4 8 15 15 26 15
10 0 17 3 15 8 -3 4 8 8 24 9 87 6 143 92 144 220 0 40 1 73 2 73 1 0 9 -13
18 -29z m-1136 -305 c104 -102 157 -142 371 -281 41 -27 100 -68 130 -90 30
-23 80 -55 110 -72 154 -87 194 -109 305 -162 605 -293 1088 -396 1707 -362
268 14 368 28 570 80 175 45 259 76 443 166 273 133 345 165 363 165 21 0 169
94 267 169 33 25 85 62 115 82 31 20 91 67 135 105 44 38 91 79 105 90 14 12
60 52 102 88 43 37 78 61 78 54 0 -7 -29 -55 -64 -106 -35 -51 -88 -134 -118
-184 -61 -105 -118 -160 -256 -252 -147 -97 -402 -236 -437 -237 -16 -1 -39
-3 -50 -4 -36 -4 -180 -47 -190 -56 -14 -14 24 -10 70 6 47 17 57 18 32 4 -62
-36 -483 -149 -506 -135 -3 2 -51 -5 -106 -15 -563 -109 -1054 -102 -1595 21
-473 108 -496 115 -700 202 -63 27 -157 70 -208 96 -101 49 -112 63 -112 131
0 44 -7 55 -26 37 -9 -9 -11 -26 -7 -50 3 -22 2 -36 -5 -36 -40 0 -288 209
-278 235 2 6 1 16 -2 22 -11 16 -72 44 -82 38 -16 -10 -210 114 -281 181 -24
23 -62 60 -83 82 l-40 41 50 -5 c27 -3 60 -1 74 5 42 17 51 13 119 -53z m3771
30 c0 -7 -7 -20 -17 -27 -15 -13 -15 -12 -5 7 6 12 8 24 5 28 -3 3 -1 6 5 6 7
0 12 -6 12 -14z m-3441 -59 c20 -17 50 -42 66 -54 17 -12 25 -23 18 -23 -7 0
-36 21 -65 46 -73 64 -73 64 -64 64 5 0 25 -15 45 -33z m3911 3 c0 -11 -28
-40 -70 -74 -190 -148 -647 -365 -950 -450 -275 -77 -420 -102 -677 -117 -482
-29 -974 71 -1418 286 -141 69 -250 134 -223 135 9 0 61 -22 115 -49 312 -156
640 -267 934 -315 186 -31 450 -46 614 -35 297 20 615 91 880 197 164 65 400
193 554 299 233 162 241 165 241 123z m-3225 0 c3 -5 2 -10 -4 -10 -5 0 -13 5
-16 10 -3 6 -2 10 4 10 5 0 13 -4 16 -10z m3865 -2 c0 -7 -34 -52 -75 -100
-71 -83 -120 -126 -130 -116 -8 8 62 104 122 167 56 59 83 75 83 49z m-3535
-903 c39 -8 112 -27 162 -42 l93 -28 0 -47 0 -46 -67 15 c-67 14 -320 97 -331
108 -9 8 40 55 57 55 9 0 48 -7 86 -15z m500 -105 c77 -10 219 -24 315 -30
293 -18 324 -21 310 -30 -9 -6 -1 -11 25 -16 32 -6 41 -3 55 13 17 21 24 22
260 39 36 2 124 15 195 29 146 27 205 31 223 13 17 -17 15 -63 -3 -78 -22 -18
-278 -58 -450 -70 -82 -6 -183 -14 -223 -18 -103 -11 -494 3 -632 22 -137 19
-256 46 -242 55 6 4 3 15 -9 30 -23 28 -36 22 -19 -8 9 -18 8 -21 -11 -21 -20
0 -21 4 -15 42 8 48 19 59 56 52 14 -2 88 -13 165 -24z"/>
<path d="M4868 9180 c-184 -21 -481 -83 -673 -141 -136 -42 -556 -209 -685
-274 -264 -132 -542 -313 -820 -532 -210 -165 -360 -308 -569 -543 -86 -96
-161 -180 -166 -186 -6 -6 -24 -18 -40 -27 -28 -15 -14 -16 240 -17 l270 0 55
55 c50 49 92 74 74 43 -4 -7 2 -5 14 6 12 10 19 24 15 30 -3 6 -3 8 2 4 10
-10 35 10 35 28 0 7 9 24 21 36 76 84 101 109 159 158 35 30 71 61 78 68 8 7
30 25 50 40 21 15 39 29 42 33 3 3 27 21 55 39 27 19 56 40 65 46 72 59 278
199 360 246 349 198 628 314 930 387 381 91 685 122 1005 102 356 -23 437 -36
790 -130 145 -39 365 -127 530 -210 105 -54 441 -267 513 -326 9 -8 64 -49
122 -92 58 -42 107 -80 110 -83 3 -3 30 -25 60 -50 184 -150 332 -292 382
-366 13 -19 37 -38 53 -43 17 -5 126 -12 243 -15 l213 -6 -153 177 c-364 424
-694 718 -1106 987 -241 157 -323 201 -562 303 -229 97 -564 187 -855 229
-166 23 -227 27 -485 30 -162 1 -330 -2 -372 -6z"/>
<path d="M5213 8763 c20 -2 54 -2 75 0 20 2 3 4 -38 4 -41 0 -58 -2 -37 -4z"/>
<path d="M4923 8753 c9 -2 25 -2 35 0 9 3 1 5 -18 5 -19 0 -27 -2 -17 -5z"/>
<path d="M5186 7941 c-17 -19 -17 -20 8 -36 24 -16 27 -16 51 3 l26 20 -23 16
c-29 21 -41 20 -62 -3z"/>
<path d="M5272 7883 l-23 -25 88 -81 c48 -45 102 -97 121 -115 61 -58 71 -62
156 -62 78 0 79 0 55 18 -13 10 -43 29 -66 42 -24 13 -43 29 -43 36 0 22 -42
28 -56 9 -15 -20 -20 -18 -82 39 l-33 31 45 5 45 5 -80 63 c-43 34 -85 62 -92
61 -6 -1 -22 -12 -35 -26z"/>
<path d="M5733 7857 c-27 -40 -28 -43 -7 -51 10 -4 29 5 50 23 l33 29 -24 16
c-13 9 -26 16 -27 16 -2 0 -13 -15 -25 -33z"/>
<path d="M6512 7872 c-37 -33 -84 -102 -79 -116 3 -8 66 -67 139 -133 73 -65
150 -135 172 -155 l38 -38 159 0 c87 0 170 -5 186 -11 38 -14 -98 112 -215
199 -163 121 -342 252 -361 262 -14 7 -24 5 -39 -8z"/>
<path d="M4000 7852 c-52 -35 -235 -185 -243 -198 -13 -22 -30 -17 -123 32
-47 25 -95 44 -107 42 -23 -3 -85 -83 -74 -94 4 -4 17 -3 30 3 16 8 29 8 44
-1 25 -13 137 -103 203 -164 l47 -42 397 2 397 3 -173 160 c-95 88 -201 186
-235 218 l-62 59 -30 -47 -30 -47 -6 39 c-4 21 -7 41 -8 45 -1 4 -13 0 -27
-10z"/>
<path d="M5779 7809 c-17 -15 -19 -19 -7 -15 10 3 17 2 16 -2 -8 -26 173 -201
332 -321 l55 -41 122 0 c79 0 143 6 184 16 45 11 64 13 67 5 2 -6 13 -11 25
-11 21 0 20 2 -7 27 -18 17 -40 26 -60 26 -24 0 -49 15 -106 63 -41 34 -88 76
-104 93 -23 24 -38 31 -66 31 -21 0 -65 3 -99 6 -59 7 -61 8 -61 35 0 21 -4
27 -15 23 -8 -3 -34 3 -57 14 -174 81 -183 83 -219 51z"/>
<path d="M4415 7698 c88 -81 215 -172 215 -154 0 6 -268 216 -276 216 -4 0 24
-28 61 -62z"/>
<path d="M5783 7673 c9 -2 23 -2 30 0 6 3 -1 5 -18 5 -16 0 -22 -2 -12 -5z"/>
<path d="M3330 7538 c-28 -29 -50 -56 -50 -61 0 -4 -17 -7 -37 -6 -43 3 -68
-8 -100 -43 l-22 -24 102 3 c56 2 153 6 214 9 l113 6 -20 26 c-53 71 -45 69
-90 28 -32 -29 -48 -36 -80 -36 -60 0 -57 6 55 94 25 21 28 26 16 40 -23 27
-50 18 -101 -36z"/>
<path d="M6760 7396 c0 -2 8 -10 18 -17 15 -13 16 -12 3 4 -13 16 -21 21 -21
13z"/>
<path d="M7575 7570 c3 -5 8 -10 11 -10 2 0 4 5 4 10 0 6 -5 10 -11 10 -5 0
-7 -4 -4 -10z"/>
<path d="M2669 6559 c-6 -12 -19 -45 -29 -75 -18 -50 -18 -55 -3 -61 12 -5 28
7 55 37 36 41 40 42 84 37 32 -3 54 -13 75 -33 16 -15 26 -30 23 -33 -3 -3
-47 -8 -97 -11 -76 -4 -92 -8 -95 -22 -3 -16 13 -17 172 -20 l175 -3 -30 31
c-27 28 -75 131 -66 141 2 2 21 -23 42 -56 l38 -60 105 -3 c113 -3 126 1 138
47 6 24 -7 56 -34 88 -14 15 -40 17 -278 17 -257 0 -264 0 -275 -21z"/>
<path d="M3833 6413 c-40 -4 -43 -6 -43 -34 0 -34 -3 -33 46 -13 22 9 50 21
64 26 24 10 24 11 5 18 -11 5 -22 8 -25 8 -3 -1 -24 -3 -47 -5z"/>
<path d="M7640 6075 c0 -4 18 -62 39 -129 35 -108 165 -580 173 -631 3 -19 12
-20 196 -23 l192 -2 -6 27 c-20 83 -92 329 -139 479 -55 171 -90 240 -136 265
-25 13 -319 26 -319 14z"/>
<path d="M6333 6055 l-22 -15 51 -143 c48 -136 80 -229 146 -417 39 -112 56
-144 91 -169 29 -21 38 -21 619 -21 l589 0 -33 143 c-18 78 -64 253 -101 390
l-67 247 -626 0 c-541 0 -628 -2 -647 -15z"/>
<path d="M8064 6017 c14 -30 39 -101 56 -158 17 -57 35 -117 40 -134 9 -31
105 -385 113 -420 3 -14 5 -11 6 10 1 24 10 35 42 55 66 40 119 104 119 142 0
38 -148 493 -171 529 -15 22 -23 24 -123 27 l-106 4 24 -55z"/>
<path d="M2591 6021 c-11 -7 -9 -13 8 -30 24 -24 25 -34 11 -62 -28 -51 -160
-579 -160 -637 0 -11 50 -13 263 -10 291 3 305 6 326 71 14 41 56 336 72 500
18 182 36 171 -269 175 -130 1 -243 -2 -251 -7z"/>
<path d="M3372 6020 c-12 -5 -26 -20 -31 -32 -5 -13 -14 -126 -20 -253 -20
-410 -19 -413 25 -433 37 -18 738 -17 751 1 13 17 80 208 141 402 85 270 86
282 32 310 -25 13 -92 15 -452 14 -233 0 -433 -4 -446 -9z"/>
<path d="M2002 5998 c-5 -7 -18 -40 -27 -73 -10 -33 -52 -177 -95 -320 -43
-143 -81 -275 -85 -292 l-7 -33 129 0 c70 0 133 4 140 8 7 4 35 93 62 197 140
528 126 484 160 497 20 7 22 5 18 -9 -37 -114 -106 -361 -138 -493 -22 -91
-42 -173 -45 -182 -5 -17 5 -18 123 -18 70 0 137 3 148 6 17 4 27 36 69 212
27 114 64 260 83 325 39 140 40 153 11 168 -32 17 -532 24 -546 7z m227 -42
c-2 -2 -47 -6 -99 -10 -65 -4 -90 -3 -80 4 13 9 189 15 179 6z"/>
<path d="M1844 5990 c-78 -8 -110 -21 -118 -47 -15 -47 -124 -492 -129 -523
-6 -43 4 -59 68 -99 79 -50 78 -52 134 127 80 252 153 511 149 529 -4 21 -13
23 -104 13z"/>
<path d="M5031 5570 c-185 -26 -355 -112 -487 -245 -73 -74 -125 -157 -167
-267 -30 -80 -31 -89 -32 -238 0 -135 3 -164 23 -230 105 -332 374 -563 726
-625 110 -19 184 -19 306 0 195 29 284 72 372 178 124 151 213 352 226 512 15
175 -24 374 -98 503 -38 65 -153 187 -233 247 -75 57 -210 122 -307 146 -88
23 -238 32 -329 19z m301 -144 c217 -58 418 -240 496 -447 87 -234 23 -528
-158 -722 -120 -128 -252 -180 -460 -180 -218 0 -378 69 -541 233 -138 139
-206 316 -196 515 8 156 59 273 175 397 53 58 168 138 249 175 113 52 302 64
435 29z"/>
<path d="M5034 5375 c-84 -18 -201 -74 -274 -130 -182 -140 -268 -394 -210
-621 26 -99 66 -168 155 -262 113 -121 220 -182 368 -213 278 -57 475 11 618
214 26 38 63 106 80 151 28 70 32 97 37 201 5 136 -8 209 -58 310 -124 254
-442 410 -716 350z m283 -59 c169 -45 342 -175 399 -301 82 -178 66 -436 -36
-595 -39 -61 -134 -152 -188 -179 -92 -47 -248 -70 -352 -51 -158 27 -263 75
-356 162 -89 83 -136 158 -164 260 -59 212 -1 409 165 567 78 73 145 113 226
135 69 19 239 20 306 2z"/>
<path d="M5036 5289 c-126 -30 -283 -159 -343 -282 -53 -107 -66 -167 -61
-283 2 -56 7 -106 11 -110 4 -4 22 6 40 23 38 36 84 53 145 53 60 0 172 53
172 81 0 29 -26 74 -56 98 -40 32 -77 27 -113 -14 -51 -59 -44 -67 69 -80 69
-8 83 -13 76 -24 -5 -8 -144 10 -178 24 -23 9 -29 31 -17 63 26 67 73 84 146
52 44 -19 143 -109 156 -141 3 -7 6 13 6 47 l1 60 -52 17 c-29 9 -80 37 -112
61 -33 25 -63 43 -66 41 -11 -7 -50 25 -50 41 0 25 23 15 67 -28 23 -23 45
-39 48 -36 5 4 -10 68 -42 181 -3 10 2 26 11 36 15 17 21 17 60 6 105 -32 152
-70 181 -148 18 -48 18 -50 0 -84 -11 -19 -30 -44 -44 -54 l-25 -20 42 3 c23
2 42 8 42 14 0 6 7 28 15 48 l16 37 47 -46 c44 -44 47 -45 56 -26 11 24 31 29
22 5 -3 -9 -3 -14 1 -12 22 9 102 70 161 121 52 44 73 57 99 57 18 0 33 -2 33
-4 0 -2 -33 -24 -72 -49 -90 -57 -168 -136 -168 -172 0 -28 49 -65 86 -65 26
0 54 30 54 58 0 12 5 22 10 22 6 0 10 -7 10 -15 0 -11 12 -15 48 -15 57 1 84
19 86 60 1 16 4 30 8 30 13 0 58 -54 50 -62 -4 -4 -43 -21 -87 -38 -44 -17
-93 -37 -110 -45 -81 -40 -141 -20 -164 54 -13 44 -34 51 -39 12 -2 -13 8 -37
25 -59 15 -20 27 -41 25 -45 -1 -5 1 -6 6 -3 5 3 30 -1 57 -9 29 -9 90 -15
151 -15 123 0 134 -3 134 -41 l0 -30 -45 26 c-35 21 -61 27 -122 30 -43 2 -68
2 -55 -1 27 -6 26 -1 1 -58 l-20 -47 20 -33 c11 -18 38 -41 60 -51 39 -17 40
-17 71 5 17 12 33 20 36 17 5 -5 -22 -63 -44 -94 -6 -9 -23 2 -63 39 -59 56
-111 92 -147 103 -22 6 -22 5 7 -37 31 -46 121 -198 121 -204 0 -2 -8 -4 -18
-4 -12 0 -32 25 -59 73 -23 40 -52 82 -65 94 l-24 22 1 -24 c1 -14 9 -33 18
-43 9 -10 17 -31 17 -46 0 -27 0 -27 -25 -9 -20 15 -22 20 -10 28 11 7 6 17
-26 52 -30 33 -39 51 -39 78 0 28 -4 36 -24 41 -32 8 -46 -2 -46 -30 0 -19 -5
-22 -38 -21 -32 0 -38 3 -34 18 2 9 -1 23 -7 30 -17 21 -3 27 69 27 36 0 71 5
77 11 7 7 12 3 17 -15 9 -38 44 -33 96 11 l43 37 -29 13 c-40 17 -64 16 -85
-3 -17 -15 -18 -13 -24 23 -10 51 -31 83 -56 83 -31 0 -99 -72 -99 -104 0 -21
-5 -26 -24 -26 -19 0 -27 8 -36 35 -10 32 -14 34 -43 28 -18 -3 -45 -12 -61
-19 -16 -8 -52 -15 -80 -15 -47 -2 -48 -2 -16 -9 l35 -6 -40 -8 c-22 -4 -53
-12 -70 -16 -16 -5 -49 -14 -72 -20 -46 -12 -77 -52 -63 -80 18 -36 44 -96 46
-109 4 -21 83 -98 136 -132 55 -36 112 -55 223 -75 203 -36 374 1 480 104 41
40 95 115 95 131 0 6 3 11 8 11 7 0 37 61 46 95 24 94 26 292 2 278 -6 -4 -6
-1 1 9 10 12 10 25 -2 65 -47 157 -240 324 -426 368 -70 16 -201 18 -263 4z
m163 -52 c-5 -17 -9 -72 -9 -122 0 -111 -10 -132 -39 -85 -15 26 -17 38 -9 53
6 12 8 50 3 103 l-7 83 29 3 c40 5 43 2 32 -35z m140 -37 c12 -36 12 -59 3
-120 -6 -41 -17 -89 -24 -106 l-13 -31 -48 12 c-26 7 -49 14 -50 16 -2 2 -1
28 1 56 l4 53 32 -25 c18 -14 40 -25 48 -25 29 0 38 116 14 183 -13 34 -12 38
2 35 10 -2 23 -22 31 -48z m87 -142 c-32 -75 -40 -88 -58 -88 -21 0 -22 4 -7
33 11 20 69 87 76 87 2 0 -3 -15 -11 -32z m82 -138 c-2 -12 -7 -20 -13 -20 -5
1 -9 9 -7 18 2 14 1 14 -6 3 -6 -7 -15 -10 -21 -7 -17 11 -3 26 25 26 20 0 25
-4 22 -20z m172 -145 c0 -7 -39 -26 -72 -35 -17 -5 -26 -5 -23 1 4 5 14 9 23
9 9 1 28 7 42 15 28 16 30 17 30 10z m-142 -32 c-10 -2 -26 -2 -35 0 -10 3 -2
5 17 5 19 0 27 -2 18 -5z m-779 -36 c-2 -1 -13 -9 -24 -17 -19 -14 -19 -14 -6
3 7 9 18 17 24 17 6 0 8 -1 6 -3z m316 -67 c8 -23 20 -36 35 -40 21 -5 20 -7
-21 -34 -89 -58 -180 -129 -190 -148 -23 -43 45 -106 102 -94 38 7 29 -10 -10
-19 -37 -8 -88 14 -125 54 l-30 31 20 22 c48 55 48 57 7 42 -21 -7 -51 -13
-68 -13 -29 0 -29 0 -10 15 11 9 45 27 75 40 61 28 95 56 116 96 20 38 17 55
-8 63 -20 7 -18 9 17 15 65 12 77 8 90 -30z m-282 -77 c3 -21 8 -46 12 -55 4
-10 3 -18 -2 -18 -11 0 -45 89 -37 101 11 19 22 8 27 -28z m323 -55 c-2 -13
-6 -34 -10 -47 -13 -39 3 -150 25 -172 24 -24 60 -24 90 0 21 17 24 28 25 93
1 40 2 89 3 108 2 33 2 34 16 16 8 -11 15 -29 15 -41 0 -12 5 -26 12 -33 9 -9
9 -12 0 -12 -8 0 -12 -20 -12 -57 0 -98 -4 -103 -69 -102 -112 1 -157 36 -145
114 5 37 31 130 41 148 8 13 11 7 9 -15z m251 -175 c35 -54 38 -78 7 -53 -14
13 -64 101 -64 115 0 15 25 -12 57 -62z"/>
<path d="M5012 4556 c-69 -37 -95 -56 -88 -63 6 -6 99 47 136 77 35 28 24 25
-48 -14z"/>
<path d="M4938 5088 c8 -35 28 -92 45 -128 27 -54 37 -66 60 -68 15 -2 27 1
27 7 0 6 13 31 29 57 25 39 28 50 20 72 -16 42 -39 63 -104 93 -91 44 -95 42
-77 -33z"/>
<path d="M5186 4871 c-32 -34 -30 -50 8 -71 48 -25 85 27 56 80 -15 28 -31 25
-64 -9z"/>
<path d="M5170 4768 c-14 -6 -20 -12 -13 -15 7 -2 23 3 35 11 25 18 15 20 -22
4z"/>
<path d="M5330 4506 c0 -2 7 -9 15 -16 9 -7 15 -8 15 -2 0 5 -7 12 -15 16 -8
3 -15 4 -15 2z"/>
<path d="M1632 2869 c74 -82 83 -89 95 -73 25 34 5 114 -29 114 -11 0 -34 6
-51 14 -102 45 -103 41 -15 -55z"/>
<path d="M8871 2773 c-1 -17 16 -25 25 -12 4 7 3 9 -4 5 -5 -3 -13 0 -15 6 -4
9 -6 10 -6 1z"/>
<path d="M1480 5045 c0 -21 4 -26 16 -21 9 3 40 6 70 6 41 0 54 4 54 15 0 11
-13 15 -54 15 -30 0 -61 3 -70 6 -12 5 -16 0 -16 -21z"/>
<path d="M1643 5064 c-7 -3 -9 -12 -6 -20 4 -10 27 -14 102 -13 53 0 103 -1
110 -3 7 -2 15 2 18 9 6 16 -85 29 -99 15 -8 -8 -15 -6 -25 4 -14 13 -74 18
-100 8z"/>
<path d="M1690 4920 c20 -13 160 -13 160 0 0 6 -36 10 -87 10 -61 0 -83 -3
-73 -10z"/>
<path d="M6612 4583 c37 -2 100 -2 140 0 40 1 10 3 -67 3 -77 0 -110 -1 -73
-3z"/>
<path d="M7989 4443 c24 -29 46 -53 48 -53 7 0 -54 75 -74 91 -10 8 2 -10 26
-38z"/>
<path d="M7843 4379 c22 -18 51 -60 72 -102 35 -69 39 -62 8 13 -15 36 -90
120 -107 120 -6 0 6 -14 27 -31z"/>
<path d="M7529 4316 c-84 -30 -115 -51 -150 -100 -31 -42 -38 -66 -14 -46 18
15 19 7 4 -22 -8 -15 -13 -17 -19 -9 -9 15 -40 -92 -40 -137 0 -17 4 -33 10
-37 14 -9 35 42 50 120 15 84 34 123 24 51 -5 -33 -3 -47 4 -42 6 4 17 -16 27
-51 26 -91 68 -125 170 -141 75 -12 123 1 169 46 82 79 100 181 49 283 -50 98
-157 130 -284 85z m54 -149 c-16 -102 -31 -118 -63 -65 -28 46 -26 82 6 107
20 16 31 18 45 10 16 -8 18 -17 12 -52z m116 -25 c12 -22 -11 -62 -35 -62 -17
0 -17 7 -3 49 12 35 24 39 38 13z"/>
<path d="M8052 3616 c-46 -33 -53 -43 -14 -20 19 10 38 25 44 32 15 17 8 14
-30 -12z"/>
<path d="M4428 2653 l-5 -258 24 -22 c19 -19 36 -23 84 -23 50 0 64 4 84 25
25 24 25 24 25 239 0 118 -4 226 -10 240 -13 35 -37 45 -123 51 l-75 6 -4
-258z"/>
</g>
</svg>
